<svg xmlns="http://www.w3.org/2000/svg" width="383.53" height="187.15" viewBox="0 0 383.53 187.15"><defs><style>.cls-1{fill:#fff;}</style></defs><title>færdigt logo</title><g id="Layer_4" data-name="Layer 4"><path class="cls-1" d="M30.27,138.9l-12.24-1-9-4-9-5.64,12.1-3.3,12-3,16.06-2H56.3l.06,0L72.53,124l7.9,5.93,37.88,6,35.88,1,35.89-7L248,102,303,66,343.9,29l39-29,.59.8-39,29-41,37-55.06,36.05-58.12,28.06h-.06l-36.05,7h-.06l-36-1-37.94-6-5.89,2-15.06,3-15,2Zm-11.91-2,11.92,1,13.92-1,15-2,15-3,5-1.68L72,124.86l-15.84-4H40.23l-15.93,2-11.94,3-9.89,2.69,7,4.4Z"/><polygon class="cls-1" points="314.73 149.42 313.74 149.38 314.74 127.38 316.74 104.36 324.75 75.27 329.75 57.27 338.78 38.19 343.94 29 382.94 0 383.53 0.8 344.62 29.74 339.67 38.65 330.69 57.62 317.72 104.53 315.73 127.44 314.73 149.42"/><path class="cls-1" d="M148.35,137.74l-4.21-.85-9-2-12-2-9.07-3-13-4L89.93,121.8l-4.84-3.63,9.14-2.28,9,2,4.9-1,10-1h12l12.09,2,28.17,7,7.74,7.74-21.9,4.81ZM90.47,121l10.94,4,13,4,9,3,11.93,2,9,2,4.1.83,7.77-.23,20-4.4L170,125.85l-27.87-7-12-2H118.23l-10,1-5,1-9-2-6.86,1.71Z"/><path class="cls-1" d="M73.73,165.21v-2.93l4.11-8.21L85.93,148,93,144l11.07-4,15.59-4,35.76,1-3.95,3.92-12,6-21,9-21.2,5H82.35Zm1-2.69v1.07l7.39-3.69H97.18l20.94-5,20.92-9,11.9-5.95,2.12-2.12-33.3-.93-15.4,3.95-11,4-6.93,4-7.85,5.89Z"/><path class="cls-1" d="M151.22,169.32l2.57-5.14,7.05-9.09L190,130l48.71-23.52v6.15l-8.11,10.13-11,11-18.06,13.06-25.07,13Zm39.29-38.5-28.95,25-6.93,8.93-1.38,2.78,22.81-8.56L201,146l17.94-13,10.94-11,7.85-9.82V108Z"/><path class="cls-1" d="M204.23,100.9h-.11l-17.11-4-9.21-4.61,21.31-5.32,10.07-1,25-4,27.07-3h.06l19.33,2.15L259.48,95.64,249.3,96.9l-14,2-16,2Zm.06-1h14.94l15.94-2,14-2,10-1.23,18.73-12.93L261.23,79.9l-26.94,3-25,4-10,1-18.61,4.66,6.74,3.37Z"/><path class="cls-1" d="M276.51,134.13l2.24-7.87,5.1-10.18L293,105l13.12-9.06,15.54-5.51-4,14.26-2,3-5,7-7.15,8.14-12.12,7Zm8.15-17.46-5,10-1.72,6L291,128.94,302.91,122l6.95-7.94,5-7,1.94-2.92L320.13,92l-13.67,4.85-12.88,8.92Z"/><path class="cls-1" d="M276.73,187.15l0-4,3-7,5.11-10.15,6-6,11-10,12.83-7.83v4.15l-1,6.13-1,8.1-6.07,9.1-5.19,6.17-12,6Zm1-3.65v2.15L289,180.94,300.92,175l4.93-5.92,5.9-8.86,1-7.88,1-6.07V144l-11.25,6.85-10.92,9.94-5.92,5.93-5,9.92Z"/><path class="cls-1" d="M339.73,173.44l-5.81-4.65-7.09-6.1-5-7-4-7-4.08-5.09,1.07-18.12,4.74,3.56,4.06,4.05,10.11,14.17,4,10,2,9.18Zm-12.12-11.38,6.95,6,4.17,3.34v-4.9l-2-9-4-9.87-10-13.95-3.95-3.94-3.2-2.39-.93,15.88,3.87,4.85,4.05,7.06Z"/><path class="cls-1" d="M359.73,100.9H357L338.83,84.7l-6-8-4.1-8.19.33-8.74.81-2.94,6.56,1.1,7.1,5.06,7.14,7.17,5,9,4.06,11.24Zm-2.31-1h1.31V90.49l-4-10.92-4.93-8.86-6.95-7L336,58.88,330.6,58,330,60l-.3,8.31,3.94,7.89,5.92,7.88Z"/><path class="cls-1" d="M67.87,58.34c.38,1.12.68,2.08.88,2.86s.4,1.62.57,2.5a23.79,23.79,0,0,1,.3,7.21,19.91,19.91,0,0,1-1.82,6.41,14.17,14.17,0,0,1-3.89,4.92A13.15,13.15,0,0,1,58,84.91a12.71,12.71,0,0,1-5.61-.08,12.3,12.3,0,0,1-4.53-2.22,13,13,0,0,1-3.24-3.83,16.25,16.25,0,0,1-1.81-5,21.81,21.81,0,0,1,0-7.69A31.38,31.38,0,0,1,45.34,58a38.39,38.39,0,0,1,4.95-7.86,43.43,43.43,0,0,1,7.2-7.06,48.62,48.62,0,0,1,9.19-5.59,46.56,46.56,0,0,1,11-3.5,41.55,41.55,0,0,1,9-.77,26.74,26.74,0,0,1,7.5,1.23,34.51,34.51,0,0,1,5.55-3.84,38.72,38.72,0,0,1,5.16-2.3l.19,1a34.73,34.73,0,0,0-4.89,2.17A21,21,0,0,0,95.55,35a17,17,0,0,1,4.91,3.72A11.57,11.57,0,0,1,103,44.24a11.79,11.79,0,0,1-.32,5.95,15.5,15.5,0,0,1-2.8,5.1,21.36,21.36,0,0,1-4.45,4.05,24.45,24.45,0,0,1-5.28,2.8l0,.17a15.34,15.34,0,0,1,4.58-.06,11.23,11.23,0,0,1,3.94,1.3,8.93,8.93,0,0,1,3,2.76,11.4,11.4,0,0,1,1.73,4.42,15.9,15.9,0,0,1-.46,7.9A23.09,23.09,0,0,1,93.63,91,18.33,18.33,0,0,1,87,93.75a13,13,0,0,1-7.93-.59,6.17,6.17,0,0,1-3.82-4.61,5.28,5.28,0,0,1,.61-3.79A4.4,4.4,0,0,1,79,82.62a3.21,3.21,0,0,1,2.51.55,2.6,2.6,0,0,0-1.71,2,8.83,8.83,0,0,0,.07,3.53,4.84,4.84,0,0,0,2.35,3.4,6.13,6.13,0,0,0,4.49.68,13.39,13.39,0,0,0,6.33-2.87A14.81,14.81,0,0,0,97,84.75a19.41,19.41,0,0,0,1.71-6.56,26.06,26.06,0,0,0-.37-7.1,9.88,9.88,0,0,0-1.75-4.24,7.69,7.69,0,0,0-3-2.38,10.06,10.06,0,0,0-4-.78,23.92,23.92,0,0,0-4.57.44l-.19-1a17.92,17.92,0,0,0,6.49-2.51,15.12,15.12,0,0,0,4.49-4.45,16,16,0,0,0,2.34-5.91,18.22,18.22,0,0,0-.06-6.82,9.72,9.72,0,0,0-1.45-3.57A10.26,10.26,0,0,0,94,37.06,43,43,0,0,0,88.2,47.3q-2.49,6-4.85,12.71t-4.88,13.4A81.47,81.47,0,0,1,72.62,85.8a40.11,40.11,0,0,1-7.77,9.68,21.57,21.57,0,0,1-10.63,5.18,11.35,11.35,0,0,1-7.11-.53,5.4,5.4,0,0,1-3.31-3.9,3.61,3.61,0,0,1,.46-2.77,3.25,3.25,0,0,1,2.17-1.4,2.59,2.59,0,0,1,2.27.47,3.41,3.41,0,0,1,1.11,2,2.71,2.71,0,0,1-2.2,3.24,2.48,2.48,0,0,0,1.09,1.24,5.85,5.85,0,0,0,1.71.66,6.89,6.89,0,0,0,1.86.16,10.63,10.63,0,0,0,1.59-.18,16.29,16.29,0,0,0,7-2.94,21.4,21.4,0,0,0,5-5.62A49.89,49.89,0,0,0,70,83q1.88-4.68,4-10.47,2.28-6,4.22-11.27t4.06-9.87a72.61,72.61,0,0,1,4.58-8.47A34.64,34.64,0,0,1,92.59,36a15,15,0,0,0-7-1.71,40.41,40.41,0,0,0-8.14.74,41.14,41.14,0,0,0-14,5.36,42.51,42.51,0,0,0-10.66,9.11,34.24,34.24,0,0,0-6.27,11.28,23.73,23.73,0,0,0-.85,11.91,19.24,19.24,0,0,0,1.45,4.47,13.7,13.7,0,0,0,2.57,3.86,10.29,10.29,0,0,0,3.59,2.48,7.66,7.66,0,0,0,4.51.38,12.27,12.27,0,0,0,5.36-2.38,13.63,13.63,0,0,0,3.68-4.46A17.82,17.82,0,0,0,68.6,71a23.16,23.16,0,0,0-.31-7.24c-.16-.88-.36-1.74-.57-2.59s-.47-1.69-.74-2.55Z"/><path class="cls-1" d="M144,60.1a52,52,0,0,1-2.23,5.12,51.55,51.55,0,0,1-3.27,5.71q-1.89,2.88-4.13,5.65a46.61,46.61,0,0,1-4.8,5.1,31,31,0,0,1-5.28,3.91,17.34,17.34,0,0,1-5.54,2.12A7.68,7.68,0,0,1,113,87a6.68,6.68,0,0,1-2.86-4.71,16.25,16.25,0,0,1,.73-8,33.07,33.07,0,0,1,4.16-8.43,33.41,33.41,0,0,1,6.36-7,16.29,16.29,0,0,1,7.33-3.7,5.38,5.38,0,0,1,3.38.25,3,3,0,0,1,1.63,2.3,5.26,5.26,0,0,1-1.42,4.24,24.45,24.45,0,0,1-4.59,4.37,54.27,54.27,0,0,1-6.12,4,57.08,57.08,0,0,1-5.93,3,18.54,18.54,0,0,0-.78,4,15.7,15.7,0,0,0,.21,4.23,10.17,10.17,0,0,0,.57,1.9,6.16,6.16,0,0,0,1,1.6,3.72,3.72,0,0,0,1.48,1,3.6,3.6,0,0,0,2,.12,15.28,15.28,0,0,0,6.06-3,41.85,41.85,0,0,0,6.56-6.16,60.78,60.78,0,0,0,6-8.14,52.21,52.21,0,0,0,4.45-9ZM129.8,58.27a2.35,2.35,0,0,0-1-1.62,2.21,2.21,0,0,0-1.64-.28,7,7,0,0,0-3.49,2.07,26.16,26.16,0,0,0-3.36,4.14,34.92,34.92,0,0,0-2.76,5A27.76,27.76,0,0,0,116,72.18,31.3,31.3,0,0,0,120.24,70,33.16,33.16,0,0,0,125,66.69a18.86,18.86,0,0,0,3.71-4.08A5.72,5.72,0,0,0,129.8,58.27Z"/><path class="cls-1" d="M164,19q-5.22,12.53-9.12,21.69L148.22,56.3q-2.78,6.51-4.54,10.73c-1.17,2.82-2.08,5.11-2.71,6.88a27.35,27.35,0,0,0-1.21,4.16,7.23,7.23,0,0,0-.09,2.5c.27,1.37,1,1.94,2.21,1.71a9.85,9.85,0,0,0,4.5-2.6,39.63,39.63,0,0,0,5.06-5.75,74.82,74.82,0,0,0,5.17-8.07q2.55-4.55,4.84-9.6l1,.16q-2.16,4.77-4.72,9.31a83.17,83.17,0,0,1-5.06,8,42.38,42.38,0,0,1-5.91,6.85,10.91,10.91,0,0,1-5,2.75,5,5,0,0,1-3.89-.46A4.27,4.27,0,0,1,136.16,80a11.68,11.68,0,0,1-.07-3.7,26.52,26.52,0,0,1,1.26-4.86c.66-1.92,1.56-4.27,2.72-7s2.58-6.2,4.28-10.26,3.71-8.87,6-14.46,4.92-12.15,7.88-19.66Z"/><path class="cls-1" d="M182.32,15.47Q177.09,28,173.2,37.16l-6.68,15.66q-2.78,6.51-4.54,10.73t-2.7,6.88a27.62,27.62,0,0,0-1.22,4.16,7,7,0,0,0-.08,2.5c.26,1.37,1,1.94,2.2,1.71a9.82,9.82,0,0,0,4.51-2.6,40.22,40.22,0,0,0,5.05-5.75,76.38,76.38,0,0,0,5.18-8.07q2.55-4.55,4.84-9.6l1,.16q-2.17,4.77-4.73,9.31a83.21,83.21,0,0,1-5.05,8A42.8,42.8,0,0,1,165,77.11a10.86,10.86,0,0,1-5,2.75,5,5,0,0,1-3.89-.46,4.27,4.27,0,0,1-1.69-2.84,11.4,11.4,0,0,1-.06-3.7A25.6,25.6,0,0,1,155.65,68q1-2.88,2.72-7t4.29-10.26q2.55-6.07,6-14.46t7.88-19.66Z"/><path class="cls-1" d="M200.53,42.08l5.36-1q-2.23,4.88-4.27,9.44c-1.36,3.06-2.55,5.86-3.57,8.42s-1.81,4.78-2.36,6.68a10,10,0,0,0-.54,4.33,2,2,0,0,0,2.63,1.72,9,9,0,0,0,4.09-2.53,39.41,39.41,0,0,0,4.93-5.76,80.34,80.34,0,0,0,5.11-8.15,98.07,98.07,0,0,0,4.67-9.6l.53.07q-1.59,3.81-3.85,8.29a82.43,82.43,0,0,1-4.92,8.5,45.56,45.56,0,0,1-5.52,6.9,11.35,11.35,0,0,1-5.76,3.45,4.7,4.7,0,0,1-3.73-.53,4.14,4.14,0,0,1-1.65-2.64,7,7,0,0,1-.06-2.33c.1-.79.22-1.6.35-2.42l-.18-.05c-.57.9-1.29,2-2.17,3.19a32,32,0,0,1-2.92,3.5,24.19,24.19,0,0,1-3.41,3,9.27,9.27,0,0,1-3.62,1.62q-3.06.59-4.65-1.08A7.82,7.82,0,0,1,173,71a16.71,16.71,0,0,1,.73-7.87,36.92,36.92,0,0,1,4-8.7,34.65,34.65,0,0,1,6-7.34,14.33,14.33,0,0,1,6.88-3.79,8.42,8.42,0,0,1,3-.09,5.85,5.85,0,0,1,2.29.84,5.92,5.92,0,0,1,1.62,1.53,11,11,0,0,1,1.09,1.93l.17,0ZM178,70.3a4.82,4.82,0,0,0,1.34,2.78,2.61,2.61,0,0,0,2.38.61,7.29,7.29,0,0,0,3.1-1.66,23.93,23.93,0,0,0,3.43-3.51,40.12,40.12,0,0,0,3.33-4.78,35.77,35.77,0,0,0,2.67-5.5,30.47,30.47,0,0,0,1.56-5.68,14.56,14.56,0,0,0,0-5.22,3.62,3.62,0,0,0-4.45-3.17,10.1,10.1,0,0,0-5.12,3.19,29.75,29.75,0,0,0-4.73,6.58,35.42,35.42,0,0,0-3.17,8.25A19,19,0,0,0,178,70.3Z"/><path class="cls-1" d="M223.37,37.74l-8,17.16.19.13q1.35-2.39,3.12-5.59a61,61,0,0,1,4-6.18,32.36,32.36,0,0,1,4.69-5.2,11.23,11.23,0,0,1,5.32-2.77,5.33,5.33,0,0,1,4.1.63,4.83,4.83,0,0,1,2,3.25,7.1,7.1,0,0,1-.35,3.31,40.26,40.26,0,0,1-1.61,4.33c-.68,1.55-1.42,3.14-2.25,4.78s-1.59,3.2-2.28,4.66-1.24,2.8-1.67,4a5.65,5.65,0,0,0-.44,2.86A2.07,2.07,0,0,0,232.91,65a11.15,11.15,0,0,0,5.27-2.83,39,39,0,0,0,5.95-7.33q1.34-2,2.65-4.26c.88-1.54,1.71-3,2.51-4.54s1.52-2.89,2.15-4.21,1.12-2.4,1.47-3.27l.64.22q-1.19,2.79-3.13,6.7a88.11,88.11,0,0,1-4.37,7.8c-1,1.55-2,3-3,4.5a35.87,35.87,0,0,1-3.19,3.89,20.08,20.08,0,0,1-3.35,2.86A9.51,9.51,0,0,1,233,66a6.07,6.07,0,0,1-4.21-.57,4.54,4.54,0,0,1-2.25-3.33,9.93,9.93,0,0,1,.95-5.77c.95-2.2,2-4.45,3.25-6.73s2.31-4.46,3.29-6.52a8.74,8.74,0,0,0,1.07-5.16,1.78,1.78,0,0,0-1-1.36,2.86,2.86,0,0,0-1.82-.16,9.35,9.35,0,0,0-4.33,2.4,31.44,31.44,0,0,0-4.47,5,76.58,76.58,0,0,0-4.29,6.62q-2.1,3.6-3.81,7.14t-3,6.72a48.88,48.88,0,0,0-1.82,5.25l-5.11,1q1.45-4,3.18-8.25t3.41-8.34c1.13-2.75,2.2-5.4,3.23-8s1.93-4.88,2.73-7Z"/><path class="cls-1" d="M261,30.59Q257.67,38,255.38,43t-3.65,8.38a49.9,49.9,0,0,0-1.91,5.23,7,7,0,0,0-.34,3c.27,1.43,1,2,2.14,1.82a8.39,8.39,0,0,0,3.61-1.93,33.66,33.66,0,0,0,4-4,57.51,57.51,0,0,0,4-5.2c1.3-1.89,2.49-3.76,3.6-5.59s2.05-3.58,2.84-5.24a29.54,29.54,0,0,0,1.67-4l.74.29q-.67,1.84-1.93,4.47t-2.93,5.47c-1.12,1.89-2.33,3.79-3.62,5.68a48.86,48.86,0,0,1-4.05,5.21,28.58,28.58,0,0,1-4.24,4,10.06,10.06,0,0,1-4.11,2A4,4,0,0,1,246,59.41a10.1,10.1,0,0,1,.08-3.82,34.05,34.05,0,0,1,1.62-5.22c.8-2.09,1.86-4.64,3.2-7.66s2.92-6.72,4.76-11.12Zm1.86-16.25a2.57,2.57,0,0,1,2.05.43,2.8,2.8,0,0,1,1.11,1.8,2.75,2.75,0,0,1-.37,2.07,2.73,2.73,0,0,1-3.8.72,2.93,2.93,0,0,1-.73-3.87A2.52,2.52,0,0,1,262.83,14.34Z"/><path class="cls-1" d="M280.56,7.39a1.49,1.49,0,0,1,1.51.52,3,3,0,0,1,.73,1.36,6.27,6.27,0,0,1-.86,4,31.37,31.37,0,0,1-2.8,4.37A33.66,33.66,0,0,1,276,21.24a6.85,6.85,0,0,1-1.92,1.56c-.28.05-.44,0-.48-.25s.21-.64.75-1.26A26.82,26.82,0,0,0,276.11,19a22,22,0,0,0,1.72-2.89,5.3,5.3,0,0,0,.57-3.06,9.29,9.29,0,0,1,.26-3.8A2.43,2.43,0,0,1,280.56,7.39Z"/><path class="cls-1" d="M317.64,27.16a75.2,75.2,0,0,1-4.23,9,52.58,52.58,0,0,1-5.79,8.4,36,36,0,0,1-7.49,6.68,25.35,25.35,0,0,1-9.4,3.8,13.77,13.77,0,0,1-3.81.21,9.16,9.16,0,0,1-3.29-.91,7.58,7.58,0,0,1-2.54-2.13,8.07,8.07,0,0,1-1.47-3.43,6.17,6.17,0,0,1,.67-4.15,4.71,4.71,0,0,1,3.46-2.45,3.22,3.22,0,0,1,2.14.23A2.3,2.3,0,0,1,287,44.09a3.47,3.47,0,0,1-.2,2.09,2,2,0,0,1-1.58,1.15,2,2,0,0,1-1.54-.22,2.33,2.33,0,0,1-.93-1.1,2.58,2.58,0,0,0-1,1.68,5.84,5.84,0,0,0,0,2,4.9,4.9,0,0,0,3,3.91,8.78,8.78,0,0,0,5.18.51,6.24,6.24,0,0,0,2.88-1.27,7.11,7.11,0,0,0,1.8-2.22,7.58,7.58,0,0,0,.78-2.84,10.74,10.74,0,0,0-1.3-6.21c-.58-1-1.19-2.09-1.83-3.11s-1.27-2-1.86-3a9.08,9.08,0,0,1-1.15-2.9,7.18,7.18,0,0,1,.12-3.4A7.28,7.28,0,0,1,291,26.33a9.61,9.61,0,0,1,2.64-2.09A11.48,11.48,0,0,1,297,23.05a9.29,9.29,0,0,1,5.63.42,4.53,4.53,0,0,1,2.79,3.45,3.45,3.45,0,0,1-1,3.43,6.88,6.88,0,0,1-3.4,1.68,10.55,10.55,0,0,0,.45-2.35,8.68,8.68,0,0,0-.07-2.42,4,4,0,0,0-1.56-2.57,3.87,3.87,0,0,0-3.14-.56,4.37,4.37,0,0,0-3.27,2.12A5.51,5.51,0,0,0,293,30a10,10,0,0,0,1.28,3.35,33.76,33.76,0,0,0,2.07,3c.7,1,1.37,2,2,3.12a11.48,11.48,0,0,1,1.36,3.76,7,7,0,0,1-.13,3.15,10.71,10.71,0,0,1-1.35,3A11.8,11.8,0,0,1,296,51.87a9,9,0,0,1-2.72,1.63l.2.13a24.5,24.5,0,0,0,8-4.21A40.3,40.3,0,0,0,308,42.87a56.61,56.61,0,0,0,5.22-7.82,76.51,76.51,0,0,0,3.85-8Z"/></g></svg>
